<svg width="512" height="512" viewBox="0 0 512 512" fill="none" xmlns="http://www.w3.org/2000/svg">
<g clip-path="url(#clip0)">
<path d="M80.0078 438.384V497.525H94.8803V511.173H65.9614V438.384H80.0078Z" fill="#3C69B1"/>
<path d="M133.301 437.144C136.606 437.144 139.498 437.971 142.803 439.212C145.695 440.452 148.587 442.934 151.066 445.829C153.545 448.724 155.197 452.859 156.85 457.409C158.089 461.958 158.915 467.748 158.915 474.779C158.915 481.396 158.089 487.186 156.85 492.149C155.61 496.698 153.545 500.834 151.066 503.729C148.587 506.624 146.108 508.691 142.803 510.346C139.911 511.586 136.606 512.414 133.301 512.414C129.996 512.414 127.104 511.586 123.799 510.346C120.908 509.105 118.016 506.624 115.537 503.729C113.058 500.834 111.406 496.698 109.753 492.149C108.514 487.599 107.688 481.809 107.688 474.779C107.688 468.162 108.514 462.372 109.753 457.409C110.993 452.859 113.058 448.724 115.537 445.829C118.016 442.934 120.494 440.866 123.799 439.212C127.104 437.971 129.996 437.144 133.301 437.144ZM122.973 474.779C122.973 475.606 122.973 476.847 122.973 478.501C122.973 480.155 122.973 481.809 123.386 483.464C123.799 485.118 123.799 487.186 124.213 488.84C124.626 490.494 125.452 492.149 125.865 493.803C126.691 495.457 127.518 496.284 128.757 497.525C129.996 498.352 131.236 498.766 132.888 498.766C134.541 498.766 135.78 498.352 137.02 497.525C138.259 496.698 139.085 495.457 139.911 493.803C140.738 492.149 141.151 490.494 141.564 488.84C141.977 487.186 142.39 485.118 142.39 483.464C142.803 481.809 142.803 480.155 142.803 478.501C142.803 476.847 142.803 475.606 142.803 474.779C142.803 473.538 142.803 472.297 142.803 470.643C142.803 468.989 142.39 467.334 142.39 465.68C141.977 464.026 141.977 461.958 141.564 460.304C141.151 458.649 140.325 456.995 139.911 455.341C139.085 454.1 138.259 452.859 137.02 452.032C135.78 451.205 134.541 450.792 132.888 450.792C131.236 450.792 129.996 451.205 128.757 452.032C127.518 452.859 126.691 454.1 125.865 455.341C125.039 456.582 124.626 458.236 124.213 460.304C123.799 461.958 123.386 464.026 123.386 465.68C122.973 467.334 122.973 468.989 122.973 470.643C122.973 472.297 122.973 473.538 122.973 474.779Z" fill="#3C69B1"/>
<path d="M189.486 438.384V466.921H203.946V438.384H218.405V511.173H203.946V480.569H189.486V511.173H175.027V438.384H189.486Z" fill="#3C69B1"/>
<path d="M264.675 438.384L282.027 511.173H266.741L263.849 498.766H249.39L246.911 511.173H232.865L249.803 438.384H264.675ZM258.478 468.162L256.826 456.995L255.173 468.162L252.282 487.599H262.197L258.478 468.162Z" fill="#3C69B1"/>
<path d="M326.645 454.927C324.993 453.687 323.753 452.446 321.688 451.619C320.035 450.792 317.969 450.378 315.904 450.378C313.838 450.378 311.773 451.205 310.533 452.446C309.294 453.687 308.467 455.341 308.467 457.822C308.467 459.89 308.881 461.544 310.12 462.785C311.359 464.026 312.599 465.68 314.251 466.921C315.904 468.162 317.556 469.402 319.622 471.057C321.688 472.297 323.34 473.952 324.993 475.606C326.645 477.26 327.884 479.328 329.124 481.809C330.363 484.291 330.776 486.772 330.776 490.081C330.776 493.389 330.363 496.284 329.537 499.179C328.711 502.074 327.471 504.142 325.406 506.21C323.753 508.278 321.274 509.932 318.796 511.173C316.317 512.414 313.425 512.827 309.707 512.827C307.641 512.827 305.576 512.414 303.097 512C301.031 511.586 298.966 510.346 297.313 509.105V495.457C298.966 496.698 300.618 497.525 302.271 498.352C303.923 499.179 305.989 499.593 308.054 499.593C310.533 499.593 312.186 498.766 313.838 497.525C315.491 496.284 316.317 494.216 316.317 491.735C316.317 490.494 315.904 489.254 315.491 488.013C315.078 487.186 314.251 485.945 313.425 485.118C312.599 484.291 311.773 483.464 310.533 483.05C309.707 482.223 308.467 481.809 307.641 480.982C305.576 479.742 303.923 478.087 301.857 476.847C300.205 475.606 298.966 473.952 297.726 472.297C296.487 470.643 295.661 468.575 295.247 466.507C294.834 464.439 294.421 461.958 294.421 459.477C294.421 456.582 294.834 453.687 295.661 451.205C296.487 448.724 297.726 446.242 299.379 444.588C301.031 442.52 303.097 440.866 305.162 440.039C307.641 438.798 310.12 438.384 313.425 438.384C315.904 438.384 317.969 438.798 320.035 439.212C322.101 439.625 324.166 440.866 326.232 441.693V454.927H326.645Z" fill="#3C69B1"/>
<path d="M394.398 438.384V511.173H379.938V438.384H394.398Z" fill="#3C69B1"/>
<path d="M446.452 438.384V452.032H435.297V511.173H420.838V452.032H409.683V438.384H446.452Z" fill="#3C69B1"/>
<path d="M248.15 306.042C240.301 299.425 232.865 291.567 229.973 281.228C229.56 280.4 229.56 279.573 229.56 278.746C229.56 315.14 229.56 357.738 229.56 387.515C229.56 418.947 278.309 418.947 278.309 387.515C278.309 375.108 278.309 360.633 278.309 345.331C277.069 337.887 275.004 331.683 271.699 327.547C264.675 318.035 257.239 313.073 248.15 306.042Z" fill="#3C70D6"/>
<path d="M229.56 243.179C229.56 253.518 229.56 265.512 229.56 278.333C229.56 279.16 229.973 279.987 229.973 280.814C232.865 291.153 240.301 299.425 248.15 305.628C256.826 313.073 264.675 317.622 271.699 327.134C274.59 331.27 276.656 337.473 278.309 344.918C278.309 310.178 278.309 271.302 278.309 243.179C278.309 211.748 229.56 211.748 229.56 243.179Z" fill="#BAE651"/>
<path d="M221.297 52.1098C221.297 52.1098 223.362 45.0791 226.254 31.8448C229.973 13.2341 242.779 0.41347 256.826 1.65418C267.98 2.89489 276.656 11.1663 278.722 22.3327C280.787 35.1534 274.177 45.9062 261.783 50.0419C254.347 52.5233 245.671 52.9369 237.822 53.3505C236.583 53.3505 221.297 52.1098 221.297 52.1098Z" fill="#BAE651"/>
<path d="M332.429 93.4669C332.429 91.399 332.429 88.9176 332.842 86.8497L323.34 128.62L317.969 151.367C316.73 156.743 317.556 161.706 319.208 166.255C322.927 182.798 335.32 196.859 352.259 201.409L367.131 137.305C347.301 132.756 332.429 114.973 332.429 93.4669Z" fill="#3C70D6"/>
<path d="M332.841 86.8497L334.494 79.819C334.081 82.3005 333.254 84.3683 332.841 86.8497Z" fill="#474747"/>
<path d="M367.544 137.305C368.784 137.719 370.023 137.719 371.263 138.133L367.544 137.305Z" fill="#474747"/>
<path d="M408.031 99.257C407.618 99.257 407.205 98.8434 406.792 98.8434L408.031 99.257Z" fill="#474747"/>
<path d="M441.494 153.021C442.321 149.712 442.734 146.404 442.734 142.682C442.734 121.59 427.861 103.392 408.031 99.2568L406.792 98.8432L378.286 91.8125L387.788 50.4555L397.29 7.44416C373.328 1.2406 350.193 11.1663 344.823 36.3941C344.823 36.8076 344.823 36.8076 344.823 37.2212L334.907 80.2325L332.842 86.8496C332.429 88.9175 332.429 90.9853 332.429 93.4668C332.429 110.01 341.517 124.485 354.738 131.929C358.456 133.997 363 136.064 367.131 136.892V136.478L370.85 137.305L388.201 141.441L397.29 143.922L393.572 160.465C393.158 161.292 393.158 162.533 393.158 163.36C392.745 164.187 392.745 165.428 392.332 166.255C390.68 172.872 390.68 179.903 391.919 186.107C395.224 203.476 408.031 217.951 425.382 222.501L441.494 153.021ZM405.552 186.52C405.965 186.52 405.965 186.52 406.378 186.52C405.965 186.52 405.965 186.52 405.552 186.52ZM401.834 186.934H402.247C402.247 186.934 401.834 186.934 401.834 186.934ZM412.989 184.866C412.989 184.866 413.402 184.866 412.989 184.866C413.402 184.866 412.989 184.866 412.989 184.866ZM416.294 183.212C416.294 183.212 416.707 183.212 416.707 182.798C416.707 183.212 416.707 183.212 416.294 183.212ZM428.687 175.354C428.687 174.94 429.1 174.94 428.687 175.354C429.1 174.94 428.687 174.94 428.687 175.354ZM425.795 177.422C426.209 177.422 426.209 177.422 425.795 177.422C426.209 177.422 426.209 177.422 425.795 177.422Z" fill="#25BDAE"/>
<path d="M445.213 137.719L446.039 134.824L448.518 123.658L468.348 38.4621C445.626 32.6721 423.73 41.3571 416.707 64.1034C416.294 64.517 416.294 65.3441 416.294 66.1713L415.468 69.4798L408.031 99.2569C427.861 103.393 442.734 121.176 442.734 142.682C442.734 146.404 442.321 149.712 441.495 153.021L445.213 137.719Z" fill="#BAE651"/>
<path d="M270.459 120.349C272.112 125.725 272.525 131.515 270.872 136.892C266.741 152.194 251.042 161.292 235.757 157.157C232.452 156.33 229.56 155.089 227.081 153.021C201.88 143.095 185.768 111.664 189.486 88.0905C184.116 95.1211 180.398 102.979 177.919 111.664C168.004 148.058 189.486 185.279 225.842 195.205C234.104 197.273 242.367 198.1 250.629 197.273C271.699 183.625 283.679 146.404 270.459 120.349Z" fill="#BAE651"/>
<path d="M231.212 103.393C256.826 87.6769 296.073 98.8433 310.946 120.349C307.641 93.8805 288.637 71.1341 261.37 63.6898C234.104 56.2456 206.011 66.5848 189.899 88.0905C185.768 111.664 202.293 143.095 227.081 153.021C217.166 146.404 212.208 133.997 215.513 122.003C217.992 113.732 223.776 107.115 231.212 103.393Z" fill="#25BDAE"/>
<path d="M310.945 120.763C296.073 99.2569 256.826 87.6769 231.212 103.806C237.409 100.911 244.432 100.084 251.042 101.738C260.544 104.22 267.567 111.664 270.872 120.349C283.679 146.404 272.112 183.625 250.629 197.273C277.895 194.378 301.444 175.354 309.293 147.645C311.359 138.132 311.772 129.447 310.945 120.763Z" fill="#3C70D6"/>
<path d="M153.544 284.123L42 373.868C58.5251 392.892 84.139 399.095 103.969 383.38C105.208 382.553 106.448 381.312 107.274 380.485C108.1 380.071 108.514 379.658 109.753 378.83L182.05 321.344L200.228 306.869C201.88 305.628 203.12 304.388 204.359 302.733C210.143 297.357 214.274 291.153 216.753 284.123H175.853H153.544V284.123Z" fill="#3C70D6"/>
<path d="M207.664 240.698C208.491 243.593 208.904 246.901 208.904 250.21C208.904 268.821 194.031 283.709 175.44 283.709H216.34C221.298 269.648 218.406 253.105 207.664 240.698Z" fill="#3C70D6"/>
<path d="M207.664 240.698L144.043 238.217L119.255 237.389L44.0659 234.494C43.2397 257.654 55.6335 277.092 78.7686 280.401C79.5949 280.814 80.8342 280.814 82.0736 280.814L153.545 284.123H175.44C194.031 284.123 208.904 269.234 208.904 250.624C208.904 246.901 208.491 243.593 207.664 240.698Z" fill="#BAE651"/>
<path d="M127.931 255.173C127.931 255.173 128.757 261.79 131.649 273.37C135.78 289.913 130.409 305.215 118.429 309.351C108.927 312.659 99.0116 309.351 93.2278 301.079C86.6178 291.567 87.8572 280.401 96.1197 272.543C101.077 267.58 107.687 263.858 114.297 260.963C115.124 260.136 127.931 255.173 127.931 255.173Z" fill="#BAE651"/>
<path d="M387.375 278.333L397.29 277.919L387.375 278.333Z" fill="#BAE651"/>
<path d="M460.498 371.8C464.629 367.664 467.521 362.287 469.174 356.497C467.521 362.287 464.216 367.25 460.498 371.8Z" fill="#BAE651"/>
<path d="M459.672 372.627C460.085 372.213 460.085 372.213 460.498 371.8C460.085 372.213 460.085 372.627 459.672 372.627Z" fill="#BAE651"/>
<path d="M400.595 344.09L355.564 353.602C362.174 381.312 394.398 397.854 427.861 390.824C438.19 388.756 448.105 383.793 455.541 376.762C456.78 375.522 458.433 374.281 459.672 372.627C460.085 372.213 460.085 372.213 460.499 371.8L400.595 344.09Z" fill="#3C70D6"/>
<path d="M387.375 278.333C408.444 277.506 429.1 268.821 438.189 248.556C440.668 242.766 442.321 236.149 441.907 229.945C430.34 230.359 419.185 230.772 407.618 231.186C386.961 232.013 365.892 232.426 345.236 233.254C336.973 233.254 328.297 233.667 320.035 234.081C313.012 234.494 305.575 236.562 299.792 241.111C297.313 243.179 293.595 246.488 292.355 249.383C290.703 253.518 289.463 258.481 289.05 263.031C289.05 265.512 289.05 268.407 289.463 270.888C289.877 274.611 291.116 278.333 292.355 282.055L362.174 279.573C362.174 279.16 387.375 278.333 387.375 278.333Z" fill="#25BDAE"/>
<path d="M455.541 320.103C451.41 318.449 446.865 316.381 442.734 314.313C441.081 313.486 439.842 313.073 438.189 312.245C415.467 302.32 392.332 292.808 370.023 282.468C367.545 281.228 365.066 279.987 362.174 278.746L292.355 281.228C294.834 287.018 298.552 291.98 303.097 296.53C307.228 300.665 312.599 303.147 317.969 305.628C323.753 308.523 329.537 311.418 335.734 313.9C349.78 319.69 363.827 326.72 377.46 333.337C385.309 337.06 392.745 340.368 400.595 344.09L460.498 371.8C464.217 367.25 467.522 361.874 469.174 356.497C470 354.016 470.413 351.121 470.413 348.226C470 336.646 464.216 326.307 455.541 320.103Z" fill="#BAE651"/>
<path d="M111.818 140.2L156.849 5.78998C157.262 4.96284 156.849 3.72213 155.61 3.30856C149.413 1.24071 143.216 0 137.432 0C120.081 0 106.035 9.92569 99.8377 26.4685C99.8377 27.2956 99.8377 27.7092 99.8377 28.1228L56.8724 155.916C52.328 169.15 56.0462 186.934 75.05 196.032L91.9883 202.236L111.405 143.922C111.405 142.682 111.405 141.441 111.818 140.2Z" fill="#25BDAE"/>
<path d="M187.834 186.52L126.278 163.36C117.189 160.052 110.579 153.021 111.405 143.922L91.988 202.236L127.93 215.884C128.343 215.884 129.17 216.297 129.583 216.297C129.996 216.297 130.409 216.711 130.822 216.711C135.78 218.365 140.737 219.606 145.695 219.606C165.112 219.606 182.463 208.439 188.66 189.002C189.073 187.761 188.66 186.934 187.834 186.52Z" fill="#3C70D6"/>
<path d="M920.722 -346.158H-456.232V938.805H920.722V-346.158Z" stroke="#606060" stroke-miterlimit="10"/>
</g>
<defs>
<clipPath id="clip0">
<rect width="428" height="512" fill="white" transform="translate(42)"/>
</clipPath>
</defs>
</svg>
