<svg width="40" height="40" viewBox="0 0 40 40" fill="none" xmlns="http://www.w3.org/2000/svg">
<path fill-rule="evenodd" clip-rule="evenodd" d="M0 7C0 5.89543 0.895431 5 2 5H38C39.1046 5 40 5.89543 40 7C40 8.10457 39.1046 9 38 9H2C0.895431 9 0 8.10457 0 7Z" fill="black"/>
<path fill-rule="evenodd" clip-rule="evenodd" d="M0 20.3331C0 19.2285 0.895431 18.3331 2 18.3331H38C39.1046 18.3331 40 19.2285 40 20.3331C40 21.4376 39.1046 22.3331 38 22.3331H2C0.895431 22.3331 0 21.4376 0 20.3331Z" fill="black"/>
<path fill-rule="evenodd" clip-rule="evenodd" d="M0 33.6669C0 32.5624 0.895431 31.6669 2 31.6669H38C39.1046 31.6669 40 32.5624 40 33.6669C40 34.7715 39.1046 35.6669 38 35.6669H2C0.895431 35.6669 0 34.7715 0 33.6669Z" fill="black"/>
</svg>
